<svg xmlns="http://www.w3.org/2000/svg" width="39" height="39" viewBox="0 0 39 39">
    <g fill="none" fill-rule="evenodd">
        <circle cx="19.5" cy="19.5" r="19" fill="#FFF" stroke="#FFF"/>
        <g fill-rule="nonzero">
            <path fill="#ED6A5B" stroke="#ED6A5B" stroke-width=".3" d="M4.97 8.729c-.106.006-.202.076-.25.186-.049.109-.044.24.014.343.057.104.158.164.264.158H6.61c.012.005.025.008.037.01.495.118.897.591 1.006 1.193H4.97c-.106.005-.202.076-.25.185-.05.11-.044.24.013.344.058.104.159.164.265.158h2.647c-.133.688-.638 1.203-1.242 1.203H4.998c-.12 0-.229.086-.274.216-.044.13-.017.277.07.374l2.819 3.093c.077.085.187.116.289.08.102-.034.18-.13.204-.25.025-.12-.008-.245-.085-.33l-2.277-2.496h.659c.94 0 1.702-.833 1.845-1.89h.607c.107.002.207-.063.261-.17.054-.107.054-.24 0-.347-.054-.107-.154-.172-.26-.17h-.603c-.062-.46-.249-.876-.51-1.203h1.112c.107.002.207-.063.26-.17.055-.107.055-.24 0-.347-.053-.107-.153-.172-.26-.17H4.97h0z" transform="translate(13 10.001)"/>
            <path fill="#ED6A5B" d="M10.21 16.586l-.52-.701c.295-.226.556-.49.776-.788l.693.527c-.27.363-.59.687-.95.962zM11.714 14.659l-.792-.353c.216-.5.325-1.03.325-1.58 0-.849-.277-1.69-.778-2.37l.692-.526c.614.83.951 1.859.951 2.897 0 .67-.134 1.32-.398 1.932z" transform="translate(13 10.001)"/>
            <path fill="#00AFCB" stroke="#00AFCB" stroke-width=".2" d="M12.376 8.557l-2.31-2.864 2.133-2.885c.223-.302.346-.676.346-1.053 0-.968-.776-1.755-1.73-1.755-.74 0-1.093.636-1.35 1.101-.247.445-.387.654-.598.654-.21 0-.35-.21-.597-.653C8.012.636 7.659 0 6.92 0c-.74 0-1.093.636-1.35 1.102-.247.444-.387.653-.597.653-.21 0-.35-.209-.595-.653C4.12.637 3.768 0 3.028 0c-.954 0-1.73.787-1.73 1.755 0 .377.123.75.346 1.053l2.132 2.885-2.31 2.864C.522 9.73 0 11.21 0 12.727c0 3.63 2.91 6.583 6.49 6.583h.863c3.579 0 6.49-2.953 6.49-6.584 0-1.516-.521-2.996-1.467-4.169zM2.163 1.755c0-.484.388-.877.865-.877.21 0 .35.21.595.654.258.465.61 1.101 1.35 1.101.74 0 1.092-.636 1.35-1.101.246-.445.386-.654.596-.654.21 0 .35.21.597.654.258.465.611 1.101 1.35 1.101.74 0 1.094-.636 1.352-1.101.246-.444.386-.654.597-.654.477 0 .865.393.865.877 0 .19-.062.376-.173.527L9.301 5.266H4.542L2.336 2.283c-.111-.152-.173-.339-.173-.528h0zm5.19 16.677H6.49c-3.102 0-5.625-2.56-5.625-5.706 0-1.313.452-2.597 1.272-3.613L4.53 6.144h4.781l2.395 2.97c.819 1.015 1.27 2.299 1.27 3.612 0 3.146-2.523 5.706-5.624 5.706z" transform="translate(13 10.001)"/>
        </g>
    </g>
</svg>
