<svg xmlns="http://www.w3.org/2000/svg" width="39" height="39" viewBox="0 0 39 39">
    <g fill="none" fill-rule="evenodd">
        <circle cx="19.5" cy="19.5" r="19" fill="#FFF" stroke="#FFF"/>
        <g fill-rule="nonzero" stroke-width=".2">
            <path fill="#00AFCB" stroke="#00AFCB" d="M15.408 9.472c-.25 0-.454.198-.454.441v5.948c0 .971-.813 1.762-1.812 1.762H2.719c-1 0-1.813-.79-1.813-1.762V5.287c0-.972.814-1.762 1.813-1.762h7.037c.25 0 .454-.198.454-.441s-.203-.44-.454-.44H2.72C1.219 2.643 0 3.828 0 5.286V15.86c0 1.457 1.22 2.643 2.719 2.643h10.423c1.499 0 2.719-1.186 2.719-2.643V9.913c0-.243-.203-.44-.453-.44z" transform="translate(11.4 9.36)"/>
            <path fill="#ED6A5B" stroke="#ED6A5B" d="M11.573 7.054c0-.246-.2-.445-.445-.445H5.732c-.246 0-.445.2-.445.445 0 .246.2.445.445.445h2.186c.64 0 1.18.434 1.345 1.023H5.732c-.246 0-.445.2-.445.446 0 .245.2.445.445.445h3.485c-.205.518-.71.886-1.3.886H5.733c-.182 0-.346.11-.413.28-.068.17-.025.362.107.488l3.62 3.439c.085.082.195.122.306.122.117 0 .235-.046.322-.138.17-.179.162-.46-.016-.63l-2.812-2.67h1.072c1.085 0 1.994-.76 2.228-1.777h.982c.245 0 .445-.2.445-.445 0-.246-.2-.445-.445-.445h-.956c-.063-.381-.22-.73-.447-1.024h1.403c.245 0 .445-.2.445-.445zM18.517 4.728L15.586 7.66c-.167.167-.462.167-.63 0l-2.93-2.932c-.174-.174-.174-.456 0-.63s.455-.174.629 0l2.171 2.173V.445c0-.246.2-.445.445-.445.246 0 .445.2.445.445V6.27l2.172-2.172c.087-.087.2-.13.314-.13.115 0 .228.043.315.13.174.174.174.456 0 .63z" transform="translate(11.4 9.36)"/>
        </g>
    </g>
</svg>
